<svg preserveAspectRatio="none" width="100%" height="100%" overflow="visible" style="display: block;" viewBox="0 0 45 45" fill="none" xmlns="http://www.w3.org/2000/svg">
<g id="Icon">
<path id="Vector" d="M30 39.375V35.625C30 33.6359 29.2098 31.7282 27.8033 30.3217C26.3968 28.9152 24.4891 28.125 22.5 28.125H11.25C9.26088 28.125 7.35322 28.9152 5.9467 30.3217C4.54018 31.7282 3.75 33.6359 3.75 35.625V39.375" stroke="var(--stroke-0, #030303)" stroke-width="4" stroke-linecap="round" stroke-linejoin="round"/>
<path id="Vector_2" d="M16.875 20.625C21.0171 20.625 24.375 17.2671 24.375 13.125C24.375 8.98286 21.0171 5.625 16.875 5.625C12.7329 5.625 9.375 8.98286 9.375 13.125C9.375 17.2671 12.7329 20.625 16.875 20.625Z" stroke="var(--stroke-0, #030303)" stroke-width="4" stroke-linecap="round" stroke-linejoin="round"/>
<path id="Vector_3" d="M41.25 39.375V35.625C41.2488 33.9632 40.6957 32.3489 39.6776 31.0356C38.6595 29.7222 37.234 28.7842 35.625 28.3687" stroke="var(--stroke-0, #030303)" stroke-width="4" stroke-linecap="round" stroke-linejoin="round"/>
<path id="Vector_4" d="M30 5.86875C31.6133 6.28182 33.0432 7.22006 34.0643 8.53558C35.0854 9.8511 35.6397 11.4691 35.6397 13.1344C35.6397 14.7997 35.0854 16.4176 34.0643 17.7332C33.0432 19.0487 31.6133 19.9869 30 20.4" stroke="var(--stroke-0, #030303)" stroke-width="4" stroke-linecap="round" stroke-linejoin="round"/>
</g>
</svg>
