<svg preserveAspectRatio="none" width="100%" height="100%" overflow="visible" style="display: block;" viewBox="0 0 26.8945 26.8262" fill="none" xmlns="http://www.w3.org/2000/svg">
<g id="Group">
<path id="Vector" d="M8.32032 26.8056C4.58204 26.5478 1.86329 25.8271 0.750008 24.7958C0.281258 24.3681 0.111336 24.0575 0.0703206 23.5888C0.0175863 22.915 0.275399 22.3993 0.908211 21.9013C2.03321 21.0224 4.08985 20.454 7.32423 20.12C8.72462 19.9794 12.0293 19.9794 13.418 20.1259C16.7988 20.4716 18.9609 21.1103 19.9863 22.0771C20.4727 22.5341 20.6426 22.8915 20.6484 23.4423C20.6484 24.3739 19.8574 25.1474 18.3047 25.7333C17.1563 26.1669 15.6211 26.4892 13.6816 26.7001C12.8496 26.788 9.15821 26.8642 8.32032 26.8056Z" fill="var(--fill-0, #6D90FF)"/>
<path id="Vector_2" d="M1.04769e-08 17.4658V14.7704L0.251953 14.6122C0.972656 14.1552 2.8125 13.6923 5.00391 13.4228C6.22852 13.2704 6.24609 13.2704 6.29297 13.4521C6.36914 13.7626 6.87891 14.8818 7.19531 15.4267C7.58789 16.1181 8.20313 16.9443 8.80664 17.6122C9.14648 17.9814 9.23438 18.1044 9.16406 18.1337C9.11133 18.1513 8.8418 18.1689 8.56641 18.1689C7.62305 18.1689 5.81836 18.3564 4.59961 18.5849C2.89453 18.8954 1.40039 19.3935 0.421875 19.9794C0.251953 20.079 0.0878906 20.1611 0.0585938 20.1611C0.0234375 20.1611 1.04769e-08 19.1415 1.04769e-08 17.4658Z" fill="var(--fill-0, #6D90FF)"/>
<path id="Vector_3" d="M16.084 19.3056C13.8809 18.9775 12.0527 18.1044 10.541 16.6572C9.11719 15.2978 8.17383 13.5986 7.72266 11.5712C7.54687 10.7744 7.5293 8.68256 7.69336 7.91498C8.36719 4.76849 10.1777 2.38959 12.9492 1.00091C15.1172 -0.0830706 17.8359 -0.305727 20.0977 0.426695C24.1816 1.7392 26.8945 5.4306 26.8945 9.67279C26.8945 14.331 23.6543 18.2509 19.0137 19.2001C18.5566 19.2939 16.5059 19.3642 16.084 19.3056ZM15.5625 13.622C15.9316 13.4462 16.1367 12.954 16.0312 12.5029C16.002 12.3974 15.5273 11.8759 14.6602 11.0087L13.3359 9.67279L14.6602 8.34271C15.5273 7.46966 16.002 6.94818 16.0312 6.84271C16.0898 6.5849 16.0254 6.18646 15.8906 5.9931C15.6504 5.66498 15.0762 5.52435 14.7187 5.71185C14.6309 5.75873 13.793 6.56732 12.8555 7.51654C11.3789 8.99896 11.1445 9.26263 11.1094 9.45599C11.0156 9.97748 11.0098 9.97748 12.8555 11.8349C13.793 12.7783 14.6426 13.5869 14.7363 13.6337C14.9766 13.7392 15.3223 13.7333 15.5625 13.622ZM19.7109 13.6279C19.8105 13.581 20.6543 12.7783 21.5742 11.8525C23.0273 10.3994 23.2617 10.1357 23.3203 9.92474C23.4551 9.39154 23.4258 9.35052 21.5742 7.4931C20.6543 6.56732 19.8105 5.76459 19.7109 5.71771C18.9902 5.37787 18.2402 5.98138 18.4102 6.7724C18.457 6.97748 18.6445 7.18841 19.793 8.33685L21.123 9.67279L19.8223 10.9736C19.1133 11.6943 18.498 12.3447 18.457 12.415C18.2988 12.7255 18.4043 13.2529 18.6738 13.4931C18.9258 13.7216 19.3887 13.7802 19.7109 13.6279Z" fill="var(--fill-0, #6D90FF)"/>
<path id="Vector_4" d="M0.0117188 10.3642C0.0292969 8.14349 0.0351563 8.04974 0.158203 7.78607C0.597656 6.83099 1.93945 6.10443 4.18945 5.60052C4.78711 5.46576 6.26953 5.21966 6.48047 5.21966C6.52148 5.21966 6.48633 5.38373 6.38672 5.6474C6.15234 6.25091 5.88281 7.31146 5.77148 8.06146C5.66602 8.77045 5.64844 10.4579 5.73633 11.0497C5.76562 11.2431 5.77734 11.4189 5.76562 11.4365C5.75391 11.4599 5.55469 11.4892 5.32031 11.5126C3.64453 11.6708 1.51758 12.1044 0.433594 12.5146C0.222656 12.5966 0.0351563 12.6611 0.0175782 12.6611C0.00585941 12.6611 3.25963e-08 11.624 0.0117188 10.3642Z" fill="var(--fill-0, #6D90FF)"/>
</g>
</svg>
