<svg preserveAspectRatio="none" width="100%" height="100%" overflow="visible" style="display: block;" viewBox="0 0 30 30" fill="none" xmlns="http://www.w3.org/2000/svg">
<g id="design 1 [Vectorized]">
<path id="Vector" d="M13.8335 5.69965C13.8795 5.70299 13.9004 5.71282 13.9343 5.74576C14.2355 6.03798 14.5348 6.34247 14.8311 6.63896L16.6271 8.43592L21.6901 13.5029L23.3761 15.1903C23.6807 15.495 24.0004 15.8279 24.3113 16.1205C24.2486 16.4193 24.1418 16.7739 24.0604 17.0707L23.6205 18.6696L23.1069 20.5286C22.9046 21.2599 22.7383 22.0655 22.3377 22.7052C21.9144 23.3818 21.2918 23.9106 20.5556 24.219C20.0593 24.4274 19.1111 24.6145 18.5495 24.7444L15.2588 25.5076L3.02382 28.3324C3.19737 28.1698 3.38518 27.9665 3.55471 27.7947L4.4684 26.8787L8.16998 23.1771C8.81019 22.5368 9.51435 21.7979 10.1675 21.1898C10.2679 21.2205 10.4965 21.3536 10.6023 21.4075C10.818 21.5178 11.0436 21.6075 11.2761 21.6756C12.4067 22.0126 13.6253 21.8823 14.6591 21.3138C15.5788 20.8053 16.287 19.9856 16.6564 19.0018C17.0634 17.9048 17.0168 16.691 16.5271 15.6284C16.0377 14.5717 15.1488 13.7526 14.0558 13.3508C12.954 12.9553 11.741 13.0072 10.677 13.4954C9.62218 13.9886 8.80736 14.8818 8.4128 15.9773C8.04894 16.9859 8.06619 18.0926 8.46132 19.0894C8.57865 19.3844 8.68865 19.5428 8.81351 19.8081C8.67305 19.9821 8.2824 20.3515 8.1091 20.5248L6.72737 21.9082L3.18155 25.4583C2.68011 25.961 2.1506 26.4756 1.65816 26.983C1.7704 26.6275 1.90375 25.9437 1.99386 25.5532L2.66167 22.6622L4.76684 13.5504L5.24965 11.4605C5.4451 10.6137 5.58879 9.6768 6.02988 8.93668C6.38394 8.3434 6.8921 7.85714 7.50038 7.52953C7.99034 7.26647 8.47658 7.1592 9.00782 7.01462L10.3594 6.6462C11.4981 6.33533 12.6937 5.98526 13.8335 5.69965Z" fill="var(--fill-0, #6D90FF)"/>
<path id="Vector_2" d="M18.347 1.6466C18.5292 1.64002 18.6715 1.64577 18.8524 1.68167C19.1685 1.74475 19.4635 1.88643 19.7104 2.09364C19.8949 2.24722 20.1268 2.49227 20.2997 2.66531L21.2256 3.59175L24.2574 6.62385L26.7319 9.09836L27.4131 9.77843C27.6322 9.99724 27.8647 10.2104 28.0364 10.468C28.3213 10.895 28.4014 11.4442 28.2973 11.9428C28.2262 12.2802 28.0654 12.5922 27.8317 12.8457C27.5739 13.1261 27.086 13.4139 26.7532 13.6314L25.4878 14.4611C25.4339 14.4818 25.46 14.4804 25.4077 14.4717C25.3266 14.4113 25.1673 14.243 25.0909 14.1664L24.4983 13.5743L22.4477 11.5247L17.2931 6.37638L16.0315 5.1179C15.9513 5.0378 15.5653 4.66267 15.524 4.59677C15.5701 4.39131 16.75 2.65393 16.9632 2.35701C17.2666 1.93422 17.8124 1.6985 18.347 1.6466Z" fill="var(--fill-0, #6D90FF)"/>
<path id="Vector_3" d="M12.3679 14.9912C13.7119 14.8808 14.8919 15.8788 15.0059 17.2226C15.12 18.5665 14.125 19.749 12.7815 19.8665C11.4329 19.9846 10.2449 18.9851 10.1305 17.6363C10.016 16.2873 11.0187 15.102 12.3679 14.9912Z" fill="var(--fill-0, #6D90FF)"/>
</g>
</svg>
