<svg preserveAspectRatio="none" width="100%" height="100%" overflow="visible" style="display: block;" viewBox="0 0 30 30" fill="none" xmlns="http://www.w3.org/2000/svg">
<g id="data-analytics 1 [Vectorized]" clip-path="url(#clip0_0_109)">
<path id="Vector" d="M9.34315 12.5232L11.3637 12.5203C11.8472 12.5198 12.4603 12.467 12.9084 12.656C13.21 12.7832 13.3194 13.0565 13.3248 13.3727C13.3411 14.3438 13.3338 15.3178 13.3333 16.2899L13.3322 21.8558L13.3327 26.1872C13.3329 26.9264 13.3518 27.679 13.3179 28.4161C13.2905 29.0126 12.8265 29.172 12.3269 29.1946L10.2717 29.2005C9.89915 29.2015 9.50684 29.2194 9.13755 29.1805C8.68022 29.1323 8.34844 28.8852 8.33909 28.401C8.32283 27.5577 8.33013 26.7144 8.33019 25.8716L8.33065 20.8986L8.33118 15.9058C8.33121 15.0703 8.31565 14.2297 8.34012 13.3952C8.36004 12.7159 8.74934 12.5549 9.34315 12.5232Z" fill="url(#paint0_linear_0_109)"/>
<path id="Vector_2" d="M17.4954 15.8624C18.2669 15.8292 19.0668 15.8725 19.8405 15.854C20.1758 15.8459 20.5137 15.8464 20.8456 15.8743C21.6887 15.9451 21.6833 16.5967 21.6746 17.262C21.6725 17.5476 21.6745 17.8592 21.6741 18.1477L21.6721 21.0504L21.6715 25.8036C21.6716 26.6024 21.6819 27.401 21.6681 28.1995C21.6589 28.7266 21.4681 29.113 20.896 29.1835C19.8614 29.2345 18.7981 29.1793 17.7595 29.1998C17.2911 29.209 16.7222 29.0592 16.6811 28.4906C16.6471 28.0198 16.6652 27.5184 16.6654 27.0438L16.6669 24.0528L16.6653 19.2568C16.6651 18.4258 16.6568 17.5946 16.676 16.7639C16.6889 16.2034 16.9334 15.9226 17.4954 15.8624Z" fill="url(#paint1_linear_0_109)"/>
<path id="Vector_3" d="M25.1272 4.18107C24.9613 3.49711 24.9342 2.93616 25.2485 2.27852C25.5289 1.67815 26.0404 1.21685 26.6664 0.999683C27.2965 0.779335 27.9886 0.819999 28.5886 1.11263C29.4694 1.54266 29.7094 2.11771 30 2.96648V3.77253C29.9484 3.89531 29.8951 4.0326 29.857 4.15916C29.6528 4.83668 29.0774 5.41532 28.4275 5.68219C27.6577 5.99839 26.8983 5.87186 26.1836 5.49486C25.7742 5.69048 25.2577 6.0138 24.8685 6.25734C23.8341 6.90475 22.7039 7.49654 21.6865 8.16C21.665 8.40023 21.648 8.6618 21.6006 8.89714C21.3607 10.0877 20.1827 10.9742 18.9684 10.8608C18.297 10.7972 17.6775 10.4719 17.244 9.95522C16.9905 9.64793 16.8398 9.32364 16.7333 8.94176C16.4984 8.77324 15.664 8.38263 15.3713 8.23787L12.5685 6.85236C11.5834 7.55903 10.7935 7.7695 9.64227 7.23076C8.25782 8.21912 6.9126 9.28269 5.53778 10.286C5.30159 10.4583 5.06877 10.6385 4.84022 10.8209C5.06449 11.4704 5.04978 12.1542 4.74688 12.7767C4.45052 13.3823 3.92657 13.8461 3.28948 14.0669C2.07434 14.4824 0.660483 13.8558 0.194397 12.6419C0.163973 12.5627 0.0358802 12.2025 0 12.152V11.2246C0.0448096 11.1624 0.19009 10.7612 0.232201 10.6606C0.474126 10.0811 0.937966 9.62253 1.52022 9.38722C2.36038 9.04541 2.99748 9.19491 3.7882 9.52981C3.97028 9.34468 5.21086 8.42968 5.48675 8.23298C6.46916 7.53255 7.50961 6.67228 8.49656 6.00311C8.37557 5.54338 8.30288 5.19979 8.35893 4.72034C8.43395 4.06204 8.76656 3.4602 9.28403 3.04641C9.80851 2.64308 10.4701 2.4613 11.127 2.54006C12.5331 2.7174 13.4778 3.94588 13.2983 5.35005C14.5139 5.92485 15.7724 6.57176 16.9805 7.17369C17.677 5.95169 19.1077 5.49404 20.3303 6.16113C21.3054 6.69319 20.8683 6.68848 21.8998 6.07444L23.9062 4.88101C24.273 4.66307 24.7543 4.35788 25.1272 4.18107Z" fill="url(#paint2_linear_0_109)"/>
<path id="Vector_4" d="M30 28.5658C29.8849 28.7578 29.7976 28.9358 29.6057 29.0657C29.504 29.1345 29.2474 29.1879 29.1371 29.1859C28.5225 29.175 26.0444 29.2655 25.6085 29.1547C25.4004 29.1021 25.2222 28.9679 25.1142 28.7824C25.0041 28.5955 25.001 28.4023 25.0002 28.1857C24.9952 26.8862 24.9979 25.5838 24.9981 24.2845L24.9981 16.6122L24.9977 13.1994C24.9977 12.7314 24.9303 11.8665 25.048 11.4417C25.1023 11.246 25.209 11.0952 25.3871 10.9956C25.5434 10.9084 25.7183 10.8728 25.8947 10.8559C26.303 10.8169 29.1044 10.8171 29.3886 10.9032C29.7023 10.9983 29.8512 11.2104 30 11.4832V28.5658Z" fill="url(#paint3_linear_0_109)"/>
<path id="Vector_5" d="M0 19.7889C0.148001 19.5547 0.32197 19.2641 0.630322 19.2274C1.61503 19.1102 2.67763 19.2306 3.66337 19.1848C5.19536 19.1136 5.00188 19.9092 5.00156 21.053L5.00036 23.2362L4.99978 26.4764C5.00098 27.0914 5.01085 27.7089 4.99063 28.32C4.96852 28.9884 4.51576 29.209 3.90439 29.2003C2.88502 29.1859 1.84473 29.2106 0.825519 29.1952C0.430922 29.1893 0.187406 28.9119 0 28.5949V19.7889Z" fill="url(#paint4_linear_0_109)"/>
</g>
<defs>
<linearGradient id="paint0_linear_0_109" x1="10.8322" y1="12.5131" x2="10.8322" y2="29.2055" gradientUnits="userSpaceOnUse">
<stop offset="0.625" stop-color="#6D90FF"/>
</linearGradient>
<linearGradient id="paint1_linear_0_109" x1="19.1683" y1="15.8494" x2="19.1683" y2="29.2059" gradientUnits="userSpaceOnUse">
<stop offset="0.625" stop-color="#6D90FF"/>
</linearGradient>
<linearGradient id="paint2_linear_0_109" x1="15" y1="0.85948" x2="15" y2="14.195" gradientUnits="userSpaceOnUse">
<stop offset="0.625" stop-color="#6D90FF"/>
</linearGradient>
<linearGradient id="paint3_linear_0_109" x1="27.4892" y1="10.8309" x2="27.4892" y2="29.2104" gradientUnits="userSpaceOnUse">
<stop offset="0.625" stop-color="#6D90FF"/>
</linearGradient>
<linearGradient id="paint4_linear_0_109" x1="2.50479" y1="19.1744" x2="2.50479" y2="29.2006" gradientUnits="userSpaceOnUse">
<stop offset="0.625" stop-color="#6D90FF"/>
</linearGradient>
<clipPath id="clip0_0_109">
<rect width="30" height="30" fill="white"/>
</clipPath>
</defs>
</svg>
