<svg preserveAspectRatio="none" width="100%" height="100%" overflow="visible" style="display: block;" viewBox="0 0 28.1837 28.147" fill="none" xmlns="http://www.w3.org/2000/svg">
<g id="Group">
<path id="Vector" d="M20.2371 28.0723C20.1434 28.0254 18.5028 26.4258 16.5926 24.5156C12.8309 20.7422 12.9891 20.9238 13.0887 20.3789C13.118 20.1797 13.534 19.7461 16.6512 16.6289C20.4774 12.8027 20.2899 12.9668 20.8407 13.0664C21.034 13.0957 21.4676 13.5117 24.5848 16.6289C27.702 19.7461 28.118 20.1797 28.1473 20.3789C28.2469 20.9238 28.4051 20.7422 24.6434 24.5156C22.6512 26.5137 21.0926 28.0254 20.9871 28.0723C20.7528 28.1719 20.4657 28.1719 20.2371 28.0723Z" fill="var(--fill-0, #6D90FF)"/>
<path id="Vector_2" d="M0.54964 24.2637C0.309405 24.1582 0.0633115 23.8594 0.0222959 23.625C0.00471776 23.5195 -0.00700099 21.2461 0.00471776 18.5625C0.0222959 13.7461 0.0222959 13.6875 0.145343 13.5293C0.209796 13.4414 0.338702 13.3125 0.426593 13.248C0.584796 13.125 0.625811 13.125 5.618 13.125C10.6102 13.125 10.6512 13.125 10.8094 13.248C10.8973 13.3125 11.0262 13.4414 11.0907 13.5293C11.2137 13.6875 11.2137 13.7285 11.2137 18.7207C11.2137 23.7129 11.2137 23.7539 11.0907 23.9121C11.0262 24 10.8973 24.1289 10.8094 24.1934C10.6512 24.3164 10.5985 24.3164 5.68831 24.3281C1.6512 24.3398 0.690265 24.3281 0.54964 24.2637Z" fill="var(--fill-0, #6D90FF)"/>
<path id="Vector_3" d="M0.549639 11.1387C0.309405 11.0332 0.0633109 10.7344 0.0222953 10.5C0.00471716 10.3945 -0.00700159 8.12111 0.00471716 5.43751C0.0222953 0.621105 0.0222953 0.562511 0.145342 0.404308C0.209795 0.316418 0.338702 0.187511 0.426592 0.123058C0.584795 1.14441e-05 0.625811 1.14441e-05 5.618 1.14441e-05C10.6102 1.14441e-05 10.6512 1.14441e-05 10.8094 0.123058C10.8973 0.187511 11.0262 0.316418 11.0907 0.404308C11.2137 0.562511 11.2137 0.603527 11.2137 5.59571C11.2137 10.5879 11.2137 10.6289 11.0907 10.7871C11.0262 10.875 10.8973 11.0039 10.8094 11.0684C10.6512 11.1914 10.5985 11.1914 5.68831 11.2031C1.6512 11.2149 0.690264 11.2031 0.549639 11.1387Z" fill="var(--fill-0, #6D90FF)"/>
<path id="Vector_4" d="M13.6746 11.1387C13.4344 11.0332 13.1883 10.7344 13.1473 10.5C13.1297 10.3945 13.118 8.12109 13.1297 5.4375C13.1473 0.621094 13.1473 0.5625 13.2703 0.404297C13.3348 0.316407 13.4637 0.1875 13.5516 0.123047C13.7098 4.74101e-07 13.7508 4.74101e-07 18.743 4.74101e-07C23.7352 4.74101e-07 23.7762 4.74101e-07 23.9344 0.123047C24.0223 0.1875 24.1512 0.316407 24.2157 0.404297C24.3387 0.5625 24.3387 0.603516 24.3387 5.5957C24.3387 10.5879 24.3387 10.6289 24.2157 10.7871C24.1512 10.875 24.0223 11.0039 23.9344 11.0684C23.7762 11.1914 23.7235 11.1914 18.8133 11.2031C14.7762 11.2148 13.8153 11.2031 13.6746 11.1387Z" fill="var(--fill-0, #6D90FF)"/>
</g>
</svg>
