<svg preserveAspectRatio="none" width="100%" height="100%" overflow="visible" style="display: block;" viewBox="0 0 26.1892 26.2161" fill="none" xmlns="http://www.w3.org/2000/svg">
<g id="Group">
<path id="Vector" d="M12.0981 26.179C8.91651 25.9387 5.89307 24.5149 3.66065 22.2005C1.72705 20.1966 0.537599 17.7766 0.109865 14.97C-0.0366198 14.0384 -0.0366198 12.1458 0.109865 11.22C1.00635 5.39577 5.4126 0.989525 11.2192 0.104759C12.1509 -0.035866 14.0435 -0.035866 14.9692 0.110618C18.7837 0.696556 21.9946 2.75906 24.0864 5.94656C25.1118 7.50515 25.7798 9.2864 26.0786 11.22C26.2251 12.1458 26.2251 14.0384 26.0845 14.97C25.6567 17.7532 24.4556 20.2024 22.5278 22.2005C19.8091 25.0188 15.9946 26.4719 12.0981 26.179ZM9.06885 18.7141C9.36768 18.5559 11.7993 16.7161 11.8931 16.5755C12.0278 16.3704 12.022 15.9309 11.8813 15.7376C11.8169 15.6555 11.1548 15.1282 10.4048 14.5774C9.11572 13.6165 9.02783 13.5637 8.78174 13.5637C8.28955 13.5637 7.97901 13.8626 7.97901 14.3372C7.97901 14.6184 8.10205 14.8001 8.50049 15.1048L8.8169 15.3509L8.6294 15.3684C8.52393 15.3801 8.28955 15.3567 8.11377 15.3216C7.38721 15.1575 6.83057 14.718 6.51416 14.0442C6.34424 13.6868 6.32666 13.5989 6.32666 13.095C6.32666 12.5911 6.34424 12.5032 6.5083 12.1575C6.97119 11.1848 7.79151 10.763 9.08057 10.8274C9.84815 10.8684 10.3169 11.0091 10.8325 11.3665C11.3364 11.7122 11.7349 12.2278 12.2505 13.2298C12.772 14.2376 13.1001 14.7122 13.6978 15.3098C14.5884 16.218 15.6548 16.7337 16.9497 16.9036C18.9653 17.1614 20.6763 16.0891 21.3325 14.1497C21.5024 13.6516 21.4849 12.4387 21.3032 11.9231C20.7759 10.4114 19.4399 9.38601 17.8403 9.25124L17.3716 9.21023L17.6821 8.98757C18.0747 8.6946 18.1919 8.5071 18.1919 8.15554C18.1919 7.92117 18.1626 7.84499 17.9985 7.66921C17.8345 7.49343 17.7524 7.45242 17.5122 7.42898C17.2427 7.39968 17.1958 7.41726 16.7856 7.69851C16.5454 7.86257 15.9009 8.33718 15.3501 8.74734C14.6001 9.30984 14.3247 9.54421 14.2427 9.71413C14.1021 10.0071 14.1548 10.2884 14.4009 10.552C14.6528 10.8157 16.938 12.5032 17.1958 12.6087C17.4653 12.7259 17.77 12.6321 18.0103 12.3626C18.1626 12.1868 18.1919 12.1048 18.1919 11.8528C18.1919 11.5833 18.1685 11.5364 17.9458 11.3137C17.8052 11.179 17.6177 11.0091 17.5181 10.9387L17.3423 10.8157L17.5591 10.8098C18.4614 10.804 19.2876 11.3255 19.6743 12.1458C19.8442 12.5032 19.8618 12.5911 19.8618 13.095C19.8618 13.593 19.8442 13.6926 19.6802 14.0325C19.2349 14.9641 18.3677 15.4387 17.2485 15.3567C16.2349 15.2864 15.438 14.9173 14.7583 14.2024C14.3189 13.7395 14.1138 13.4231 13.5689 12.3567C12.7017 10.6634 11.7231 9.78445 10.2524 9.39773C9.61377 9.22781 8.21338 9.21023 7.64502 9.36843C7.01221 9.53835 6.44971 9.8489 5.9751 10.2942C5.47705 10.7571 5.15479 11.2434 4.91455 11.8645C4.76221 12.2688 4.75049 12.3684 4.75049 13.095C4.75049 13.7688 4.76807 13.9387 4.8794 14.2669C5.4126 15.7786 6.74854 16.804 8.34815 16.9387L8.8169 16.9798L8.47119 17.2376C8.27783 17.3782 8.09619 17.5716 8.04932 17.677C7.89697 18.052 8.02002 18.4798 8.34229 18.679C8.51807 18.7903 8.88721 18.8079 9.06885 18.7141Z" fill="var(--fill-0, #6D90FF)"/>
</g>
</svg>
