<svg width="140" height="31" viewBox="0 0 140 31" fill="none" xmlns="http://www.w3.org/2000/svg">
<path fill-rule="evenodd" clip-rule="evenodd" d="M24 22.1502C23.9742 22.1502 24.0259 22.1502 24 22.1502C23.6544 22.1502 23.3104 22.1483 22.9683 22.1446C22.887 22.1437 22.8101 22.1811 22.7607 22.2457L17.0516 29.7169C16.9498 29.8501 16.7387 29.7466 16.7817 29.5845L18.7119 22.3094C18.7537 22.152 18.6403 21.9959 18.4777 21.986C14.2685 21.731 10.4901 21.1903 7.49086 20.4441C5.36722 19.9157 3.57841 19.2709 2.29666 18.5169C1.08259 17.8028 2.09302e-07 16.7939 0 15.4346C0 14.0752 1.08259 13.0664 2.29666 12.3522C3.57841 11.5982 5.36721 10.9534 7.49086 10.4251C11.7535 9.36451 17.7 8.71897 24.1101 8.71897C24.3473 8.71897 24.5829 8.72394 24.8166 8.73375C24.8257 8.73413 24.8344 8.72999 24.8399 8.72267C24.966 8.55355 25.0937 8.38553 25.223 8.21863L30.7697 1.06017C30.8717 0.928544 31.0809 1.03111 31.0393 1.19234L29.1392 8.55251C29.0987 8.7097 29.2123 8.86471 29.3743 8.87425C33.6429 9.12545 37.4748 9.67011 40.5091 10.4251C42.6328 10.9534 44.4216 11.5982 45.7033 12.3522C46.9174 13.0664 48 14.0752 48 15.4346C48 16.7939 46.9174 17.8028 45.7033 18.5169C44.4216 19.2709 42.6328 19.9157 40.5091 20.4441C36.2888 21.4941 30.3353 22.1375 24 22.1502ZM23.4542 10.7279C23.4578 10.7223 23.4536 10.7149 23.4469 10.7152C23.3447 10.7199 23.2431 10.7255 23.1421 10.7321C21.0761 10.8676 19.2582 11.4301 17.928 12.2344C16.375 13.1734 15.633 14.3347 15.633 15.4346C15.633 16.5344 16.375 17.6958 17.928 18.6347C18.3255 18.8751 18.7666 19.0939 19.2449 19.2861C19.3831 19.3417 19.5376 19.2642 19.5811 19.1217C19.7566 18.5457 19.9472 17.975 20.1527 17.4102C20.1973 17.2876 20.1436 17.1513 20.0302 17.0869C19.1759 16.6015 18.656 15.9689 18.656 15.2843C18.656 14.1511 20.0804 13.206 22.0878 12.8539C22.1663 12.8401 22.2351 12.7917 22.2733 12.7217C22.6439 12.0443 23.0377 11.3793 23.4542 10.7279ZM26.0356 20.0421C27.705 19.8183 29.1717 19.3123 30.2922 18.6347C31.8452 17.6958 32.5872 16.5344 32.5872 15.4346C32.5872 14.3347 31.8452 13.1734 30.2922 12.2344C29.801 11.9373 29.2431 11.6733 28.6309 11.4515C28.4946 11.4022 28.3463 11.4789 28.303 11.6172C28.1302 12.1691 27.9436 12.7161 27.7432 13.2577C27.6968 13.383 27.7535 13.5227 27.8715 13.5855C28.7985 14.0789 29.3685 14.7388 29.3685 15.4556C29.3685 16.6288 27.8419 17.6003 25.7222 17.9211C25.6421 17.9332 25.5713 17.9813 25.5318 18.052C25.2236 18.603 24.9 19.1455 24.5613 19.679C24.4513 19.8523 24.5756 20.08 24.7808 20.0768C25.2037 20.0704 25.6221 20.0587 26.0356 20.0421ZM12.2462 12.3351C12.9945 12.0864 13.819 11.8607 14.7081 11.6621C14.9634 11.605 15.1378 11.9394 14.9665 12.1372C14.1546 13.074 13.6514 14.1884 13.6514 15.4346C13.6514 16.6491 14.1294 17.7385 14.9052 18.6603C15.0726 18.8592 14.8974 19.1884 14.6438 19.1312C13.7792 18.9362 12.9765 18.7153 12.2462 18.4727C10.7597 17.9788 9.62824 17.4124 8.88883 16.8316C8.1379 16.2417 7.92661 15.7516 7.92661 15.4039C7.92661 15.0561 8.1379 14.566 8.88883 13.9761C9.62824 13.3953 10.7597 12.829 12.2462 12.3351ZM34.5688 15.4346C34.5688 16.6226 34.1115 17.6909 33.3654 18.5997C33.2006 18.8003 33.3788 19.1273 33.6316 19.0677C34.3917 18.8886 35.1017 18.6893 35.7538 18.4727C37.2403 17.9788 38.3718 17.4124 39.1112 16.8316C39.8621 16.2417 40.0734 15.7516 40.0734 15.4039C40.0734 15.0561 39.8621 14.566 39.1112 13.9761C38.3718 13.3953 37.2403 12.829 35.7538 12.3351C35.0837 12.1124 34.3525 11.9081 33.5686 11.7252C33.3141 11.6659 33.1366 11.9979 33.3054 12.1975C34.0869 13.1217 34.5688 14.215 34.5688 15.4346ZM44.6987 16.8089C43.6862 17.4045 42.1743 17.9747 40.2305 18.4708C40.1961 18.4978 40.2659 18.444 40.2305 18.4708C41.2066 17.704 42.055 16.6218 42.055 15.4039C42.055 14.5983 41.7297 13.8874 41.2269 13.2765C41.0501 13.0616 41.2599 12.6781 41.5262 12.759C42.8561 13.1633 43.9237 13.6044 44.6987 14.0602C45.8132 14.7159 46.0184 15.2131 46.0184 15.4346C46.0184 15.6561 45.8132 16.1532 44.6987 16.8089ZM6.77307 13.2765C6.94993 13.0616 6.74009 12.6781 6.47381 12.759C5.14391 13.1633 4.07633 13.6044 3.30135 14.0602C2.18678 14.7159 1.98165 15.2131 1.98165 15.4346C1.98165 15.6561 2.18678 16.1532 3.30135 16.8089C4.29143 17.3913 5.75906 17.9495 7.64112 18.4377C7.6693 18.445 7.6876 18.408 7.66471 18.39C6.68865 17.6233 5.94495 16.6218 5.94495 15.4039C5.94495 14.5983 6.27032 13.8874 6.77307 13.2765Z" fill="white"/>
<path d="M129.25 9.05859H135.856C138.759 9.05859 140 10.8534 140 12.9155C140 14.863 138.873 16.9633 135.856 16.9633H131.847C131.637 16.9633 131.522 17.0588 131.522 17.2879V21.9467H129.269V16.8488C129.269 15.3976 129.88 14.8057 131.293 14.8057H135.933C137.212 14.8057 137.728 13.9274 137.728 13.03C137.728 12.0945 137.174 11.3116 135.952 11.3116H129.25V9.05859Z" fill="white"/>
<path d="M124.874 21.9454L123.862 19.2914H116.645L115.594 21.9454H113.112L117.637 10.4893C118.077 9.26728 118.993 8.82812 120.349 8.82812C121.685 8.82812 122.602 9.26728 123.022 10.4893L127.375 21.9454H124.874ZM119.68 11.5776L117.485 17.1529H123.06L120.96 11.5776C120.845 11.2721 120.635 11.1384 120.33 11.1384C120.024 11.1384 119.814 11.2721 119.68 11.5776Z" fill="white"/>
<path d="M101.347 9.05859H107.782C110.818 9.05859 112.097 10.5288 112.097 12.5145C112.097 14.042 111.448 14.9776 110.264 15.474C111.486 15.9895 112.135 16.9442 112.135 18.4908C112.135 20.4192 110.875 21.9467 107.839 21.9467H101.328V19.6937H107.839C109.156 19.6937 109.787 19.0827 109.787 18.0516C109.787 17.0206 109.118 16.5051 107.82 16.5051H103.848V14.4621H107.763C109.08 14.4621 109.729 13.9847 109.729 12.9155C109.729 11.9417 109.137 11.3116 107.782 11.3116H101.347V9.05859Z" fill="white"/>
<path d="M97.3529 21.9454L96.341 19.2914H89.1236L88.0735 21.9454H85.5913L90.1165 10.4893C90.5556 9.26728 91.4721 8.82812 92.8278 8.82812C94.1643 8.82812 95.0808 9.26728 95.5008 10.4893L99.8542 21.9454H97.3529ZM92.1595 11.5776L89.9637 17.1529H95.539L93.4387 11.5776C93.3242 11.2721 93.1142 11.1384 92.8087 11.1384C92.5032 11.1384 92.2931 11.2721 92.1595 11.5776Z" fill="white"/>
<path d="M74.5873 9.05859H80.2581C83.294 9.05859 84.5732 10.4906 84.5732 12.5909C84.5732 14.0802 83.924 14.9776 82.7211 15.4549C83.9431 15.9514 84.6305 16.906 84.6305 18.3953C84.6305 20.4574 83.3512 21.9467 80.3154 21.9467H74.5873C73.8618 21.9467 73.5181 21.603 73.5181 20.8966V10.1087C73.5181 9.40228 73.8618 9.05859 74.5873 9.05859ZM75.7329 16.3714V19.5028C75.7329 19.6555 75.8284 19.7128 75.9811 19.7128H80.3726C81.7283 19.7128 82.3584 19.0827 82.3584 18.0326C82.3584 16.9442 81.6901 16.3714 80.3726 16.3714H75.7329ZM75.7329 11.5026V14.5002H80.3154C81.6519 14.5002 82.3011 14.0038 82.3011 12.9537C82.3011 11.9417 81.7092 11.2734 80.3345 11.2734H75.9811C75.8284 11.2734 75.7329 11.3498 75.7329 11.5026Z" fill="white"/>
<path d="M60 9.05859H62.253V14.5193H63.4941C65.709 14.5193 66.0717 14.3284 66.7973 12.9155L68.7639 9.05859H71.1888L69.1649 13.0682C68.5921 14.2138 67.9811 14.9585 66.931 15.4167C68.1338 15.7413 68.7257 16.4096 69.4895 17.8989L71.5707 21.9467H69.0503L67.0837 18.128C66.3772 16.7533 65.919 16.5623 63.4941 16.5623H62.253V21.9467H60V9.05859Z" fill="white"/>
</svg>
