<svg preserveAspectRatio="none" width="100%" height="100%" overflow="visible" style="display: block;" viewBox="0 0 60 60" fill="none" xmlns="http://www.w3.org/2000/svg">
<g id="telegram-svgrepo-com 1">
<path id="Vector" d="M41.4787 18.8258C41.4899 18.8258 41.5049 18.8258 41.5199 18.8258C41.9118 18.8258 42.2756 18.9476 42.5737 19.1576L42.5681 19.1539C42.7856 19.3433 42.9318 19.6095 42.9675 19.9095V19.9151C43.005 20.1439 43.0256 20.4064 43.0256 20.6745C43.0256 20.7964 43.0218 20.9164 43.0125 21.0364V21.0195C42.5906 25.4614 40.7606 36.2333 39.8306 41.2058C39.4368 43.3114 38.6624 44.0164 37.9124 44.0839C36.2831 44.2358 35.0456 43.0076 33.4668 41.9726C30.9956 40.3508 29.5987 39.342 27.2006 37.7614C24.4275 35.937 26.2256 34.9301 27.8043 33.2914C28.2187 32.8601 35.4018 26.3258 35.5424 25.7333C35.5499 25.6976 35.5537 25.6583 35.5537 25.617C35.5537 25.4708 35.4993 25.3376 35.4112 25.2364C35.3137 25.1726 35.1918 25.137 35.0643 25.137C34.98 25.137 34.8993 25.1539 34.8243 25.182L34.8281 25.1801C34.5806 25.2364 30.6331 27.8451 22.9856 33.0064C22.1512 33.6645 21.0975 34.0808 19.95 34.1295H19.9387C18.3131 33.9326 16.8375 33.5708 15.4368 33.0551L15.5756 33.1001C13.8168 32.5264 12.42 32.2245 12.54 31.2533C12.6037 30.7483 13.3 30.2314 14.6287 29.7026C22.8137 26.1364 28.2718 23.7858 31.0031 22.6508C34.0162 21.0514 37.5093 19.7351 41.1825 18.882L41.4768 18.8239L41.4787 18.8258ZM29.8687 1.92263C14.3025 1.96013 1.69683 14.5883 1.69683 30.1601C1.69683 45.7545 14.3381 58.3976 29.9343 58.3976C45.5306 58.3976 58.1718 45.7564 58.1718 30.1601C58.1718 14.5883 45.5662 1.96013 30.0037 1.92263H30C29.9562 1.92263 29.9125 1.92263 29.8687 1.92263Z" fill="var(--fill-0, white)"/>
</g>
</svg>
