<svg preserveAspectRatio="none" width="100%" height="100%" overflow="visible" style="display: block;" viewBox="0 0 60 60" fill="none" xmlns="http://www.w3.org/2000/svg">
<g id="vk-svgrepo-com 1">
<path id="Vector" d="M47.282 42.0046H43.1964C41.6495 42.0046 41.1714 40.7746 38.3927 37.9584C35.972 35.6146 34.9014 35.2996 34.307 35.2996C33.4727 35.2996 33.2345 35.5377 33.2345 36.689V40.379C33.2345 41.3727 32.9177 41.9671 30.2983 41.9671C25.0145 41.6127 20.4733 38.7309 17.837 34.5309L17.7977 34.4652C14.7377 30.6646 12.482 26.084 11.3664 21.074L11.3252 20.8546C11.3252 20.2602 11.5633 19.7034 12.7145 19.7034H16.8002C17.8314 19.7034 18.2289 20.1796 18.6283 21.2896C20.6495 27.1246 24.0245 32.2434 25.4139 32.2434C25.9295 32.2434 26.1677 32.0052 26.1677 30.6965V24.6609C26.0083 21.8821 24.5402 21.6459 24.5402 20.654C24.557 20.1234 24.992 19.6996 25.5245 19.6996C25.5414 19.6996 25.5564 19.6996 25.5733 19.7015H25.5714H32.0008C32.8745 19.7015 33.1914 20.1777 33.1914 21.209V29.3465C33.1914 30.2184 33.5889 30.5371 33.827 30.5371C34.3427 30.5371 34.7814 30.2184 35.732 29.2677C37.7083 26.8546 39.3977 24.0946 40.6858 21.119L40.772 20.894C41.0439 20.2134 41.6964 19.7409 42.4595 19.7409C42.4952 19.7409 42.5289 19.7427 42.5645 19.7446H42.5589H46.6445C47.8745 19.7446 48.1539 20.3765 47.8745 21.2521C46.2358 24.8615 44.3945 27.9627 42.2608 30.8352L42.3583 30.6965C41.9233 31.4109 41.7639 31.7277 42.3583 32.5246C42.7933 33.119 44.2239 34.349 45.1764 35.4609C46.5545 36.824 47.7095 38.4102 48.5814 40.1615L48.6283 40.2646C49.0258 41.4121 48.4295 42.0084 47.2783 42.0084L47.282 42.0046ZM38.6327 1.88337H21.3695C5.61392 1.88337 1.88455 5.61275 1.88455 21.3684V38.6315C1.88455 54.3871 5.61392 58.1165 21.3695 58.1165H38.6327C54.3883 58.1165 58.1177 54.3871 58.1177 38.6315V21.3684C58.1177 5.61275 54.347 1.88337 38.6327 1.88337Z" fill="var(--fill-0, white)"/>
</g>
</svg>
